<?xml version="1.0" encoding="UTF-8" standalone="no"?>
<svg
   xmlns:dc="http://purl.org/dc/elements/1.1/"
   xmlns:cc="http://creativecommons.org/ns#"
   xmlns:rdf="http://www.w3.org/1999/02/22-rdf-syntax-ns#"
   xmlns:svg="http://www.w3.org/2000/svg"
   xmlns="http://www.w3.org/2000/svg"
   xmlns:sodipodi="http://sodipodi.sourceforge.net/DTD/sodipodi-0.dtd"
   xmlns:inkscape="http://www.inkscape.org/namespaces/inkscape"
   viewBox="0 0 90.134127 150"
   version="1.1"
   id="svg432"
   sodipodi:docname="unicorn-310175.svg"
   width="90.134125"
   height="150"
   inkscape:version="0.92.4 (5da689c313, 2019-01-14)">
  <metadata
     id="metadata438">
    <rdf:RDF>
      <cc:Work
         rdf:about="">
        <dc:format>image/svg+xml</dc:format>
        <dc:type
           rdf:resource="http://purl.org/dc/dcmitype/StillImage" />
        <dc:title></dc:title>
      </cc:Work>
    </rdf:RDF>
  </metadata>
  <defs
     id="defs436" />
  <sodipodi:namedview
     pagecolor="#ffffff"
     bordercolor="#666666"
     borderopacity="1"
     objecttolerance="10"
     gridtolerance="10"
     guidetolerance="10"
     inkscape:pageopacity="0"
     inkscape:pageshadow="2"
     inkscape:window-width="1920"
     inkscape:window-height="1017"
     id="namedview434"
     showgrid="false"
     inkscape:zoom="0.56567592"
     inkscape:cx="-99.679297"
     inkscape:cy="261.63298"
     inkscape:window-x="-8"
     inkscape:window-y="-8"
     inkscape:window-maximized="1"
     inkscape:current-layer="svg432"
     fit-margin-top="0"
     fit-margin-left="0"
     fit-margin-right="0"
     fit-margin-bottom="0" />
  <g
     id="g1677"
     transform="matrix(0.33898231,0,0,0.33898231,1.0894076,8.5768705)">
    <path
       style="fill:#875c2a;fill-rule:evenodd"
       inkscape:connector-curvature="0"
       id="path2"
       d="m 113.85,85.233 c 19.5,19.477 19.598,46.794 34.773,67.696 8.656,11.923 22.896,13.662 35.665,20.041 10.248,5.12 24.326,10.455 27.642,22.714 -3.962,-0.91 -8.135,-6.235 -12.93,-6.235 -7.113,0 -11.856,0.241 -19.17,1.782 -12.257,2.582 -26.162,-0.65401 -35.664,-8.017 12.904,9.738 27.65,12.923 41.906,20.042 13.794,6.889 29.081,21 34.772,34.294 -6.975,-5.495 -17.157,-8.018 -25.856,-8.018 -6.982,0 -21.573,-5.476 -24.073,-11.579 h -0.89299 c 0.61499,7.653 15.823,16.811 22.29,20.041 11.569,5.779 20.812,14.104 29.87,23.16 8.173,8.168 15.533,22.127 20.063,31.621 5.2,10.903 9.531,22.161 13.373,32.957 -10.283,-6.845 -23.159,-14.25 -35.664,-14.25 -14.035,0 -27.865,-2.481 -41.016,-6.236 3.793,5.171 11.689,8.673 17.832,10.688 3.689,1.21 8.637,1.851 12.483,2.673 3.723,0.79501 9.276,2.672 12.928,2.672 6.985,0 18.611,7.79 21.4,13.361 2.075,4.144 6.053,8.273 9.361,11.58 2.643,2.639 4.078,7.809 6.241,9.797 -5.57,-2.711 -9.814,-5.345 -16.94,-5.345 -7.832,0 -14.967,1.945 -22.291,2.673 -14.678,1.459 -30.501,-1.347 -43.689,-6.234 -12.37,-4.585 -16.546,-10.881 -21.4,-21.379 -5.721,-12.371 -10.432,-26.826 -15.158,-40.083 -11.254,-31.572 -21.997,-63.243 -32.544,-94.864 -2.374,-7.117 -4.812,-13.903 -7.579,-20.933 -1.808,-4.592 -6.241,-13.48 -6.241,-18.26 0,-5.446 -5.083,-19.274 -8.025,-22.714 9.512,-14.548 19.022,-29.097 28.534,-43.645" />
    <g
       style="stroke:#000000;stroke-width:1.22500002;stroke-linecap:square;stroke-miterlimit:10"
       id="g30"
       stroke-miterlimit="10">
      <g
         style="fill:none"
         id="g26">
        <path
           inkscape:connector-curvature="0"
           id="path4"
           d="m 113.85,85.233 c 24.084,24.055 20.232,64.056 50.822,80.167" />
        <path
           inkscape:connector-curvature="0"
           id="path6"
           d="m 164.67,165.4 c 14.991,7.665 42.072,11.11 47.258,30.285 -10.771,-2.471 -18.693,-11.03 -32.1,-4.454" />
        <path
           inkscape:connector-curvature="0"
           id="path8"
           d="m 179.83,191.23 c -10.563,4.795 -27.639,-1.798 -35.664,-8.017 7.734,5.837 16.24,9.447 24.964,13.807 7.911,3.952 17.593,4.152 24.967,10.243" />
        <path
           inkscape:connector-curvature="0"
           id="path10"
           d="m 194.1,207.26 c 10.443,6.193 22.584,20.559 26.748,30.286 -6.975,-5.495 -17.157,-8.018 -25.856,-8.018 -6.982,0 -21.573,-5.476 -24.073,-11.579 h -0.893 c -0.157,1.068 0.507,0.968 0.893,1.782" />
        <path
           inkscape:connector-curvature="0"
           id="path12"
           d="m 170.92,219.73 c 0.744,4.508 10.745,11.9 14.266,14.252 5.654,3.775 19.785,8.352 22.737,14.252 2.378,4.753 17.386,9.471 17.386,16.478 0,1.578 5.38,9.384 6.688,10.689 3.084,3.082 5.327,9.144 7.58,12.024" />
        <path
           inkscape:connector-curvature="0"
           id="path14"
           d="m 239.57,287.43 c 1.12,6.369 6.019,13.601 8.916,19.597 3.029,6.273 4.902,12.438 7.132,18.705 -8.082,-5.38 -17.569,-11.064 -26.749,-13.36 -9.316,-2.33 -20.828,-1.488 -30.315,-2.674" />
        <path
           inkscape:connector-curvature="0"
           id="path16"
           d="m 198.56,309.7 c -6.449,-0.38599 -13.521,-2.712 -19.615,-4.452 6.785,9.249 21.427,11.076 32.099,13.361 14.011,2.999 26.416,6.469 34.773,18.704" />
        <path
           inkscape:connector-curvature="0"
           id="path18"
           d="m 245.81,337.31 c 3.63,5.441 9.232,14.899 13.374,18.706 -9.426,-4.583 -20.702,-7.953 -32.544,-4.007 -10.395,3.462 -25.075,1.549 -35.221,-1.338" />
        <path
           inkscape:connector-curvature="0"
           id="path20"
           d="m 191.42,350.67 c -6.378,1.076 -16.674,-3.876 -22.291,-6.681 -6.23,-3.112 -7.257,-7.696 -11.145,-11.579 -3.052,-3.049 -5.038,-11.152 -6.687,-15.588 -2.949,-7.933 -6.191,-15.874 -8.917,-24.05" />
        <path
           inkscape:connector-curvature="0"
           id="path22"
           d="m 142.38,292.77 c -1.5,-9.598 -7.075,-20.317 -10.255,-29.84 -3.823,-11.454 -8.744,-22.651 -12.481,-33.849 -6.997,-20.958 -14.981,-41.84 -20.954,-62.796" />
        <path
           inkscape:connector-curvature="0"
           id="path24"
           d="M 98.692,166.29 C 91.405,155.972 92.741,137.556 85.317,128.878 94.828,114.33 104.339,99.781 113.85,85.233" />
      </g>
      <path
         style="fill:#ffffff"
         inkscape:connector-curvature="0"
         id="path28"
         d="m 113.85,85.233 c 19.5,19.477 19.598,46.794 34.773,67.696 8.656,11.923 22.896,13.662 35.665,20.041 10.248,5.12 24.326,10.455 27.642,22.714 -3.962,-0.91 -8.135,-6.235 -12.93,-6.235 -7.113,0 -11.856,0.241 -19.17,1.782 -12.257,2.582 -26.162,-0.65401 -35.664,-8.017 12.904,9.738 27.65,12.923 41.906,20.042 13.794,6.889 29.081,21 34.772,34.294 -6.975,-5.495 -17.157,-8.018 -25.856,-8.018 -6.982,0 -21.573,-5.476 -24.073,-11.579 h -0.89299 c 0.61499,7.653 15.823,16.811 22.29,20.041 11.569,5.779 20.812,14.104 29.87,23.16 8.173,8.168 15.533,22.127 20.063,31.621 5.2,10.903 9.531,22.161 13.373,32.957 -10.283,-6.845 -23.159,-14.25 -35.664,-14.25 -14.035,0 -27.865,-2.481 -41.016,-6.236 3.793,5.171 11.689,8.673 17.832,10.688 3.689,1.21 8.637,1.851 12.483,2.673 3.723,0.79501 9.276,2.672 12.928,2.672 6.985,0 18.611,7.79 21.4,13.361 2.075,4.144 6.053,8.273 9.361,11.58 2.643,2.639 4.078,7.809 6.241,9.797 -5.57,-2.711 -9.814,-5.345 -16.94,-5.345 -7.832,0 -14.967,1.945 -22.291,2.673 -14.678,1.459 -30.501,-1.347 -43.689,-6.234 -12.37,-4.585 -16.546,-10.881 -21.4,-21.379 -5.721,-12.371 -10.432,-26.826 -15.158,-40.083 -11.254,-31.572 -21.997,-63.243 -32.544,-94.864 -2.374,-7.117 -4.812,-13.903 -7.579,-20.933 -1.808,-4.592 -6.241,-13.48 -6.241,-18.26 0,-5.446 -5.083,-19.274 -8.025,-22.714 9.512,-14.548 19.022,-29.097 28.534,-43.645" />
    </g>
    <path
       style="fill:#4a3217;fill-rule:evenodd"
       inkscape:connector-curvature="0"
       id="path32"
       d="m 107.61,87.904 c 11.856,-1.891 16.844,27.133 18.493,35.366 2.018,10.079 5.821,19.731 7.364,29.658 1.223,7.868 3.565,15.427 3.565,23.159 0,5.889 2.045,11.858 2.675,17.815 0.30101,2.835 -0.62,10.068 1.339,12.025 2.094,2.092 3.192,13.303 4.012,16.479 0.90399,3.495 1.935,7.236 2.676,10.688 0.796,3.705 3.566,9.737 3.566,13.361 0,8.499 5.025,18.841 8.024,26.722 2.801,7.366 3.957,15.038 7.577,22.271 1.172,2.335 1.741,5.744 3.569,7.569 0.767,0.767 3.742,3.633 4.011,4.009 1.751,2.45 3.567,7.956 3.567,11.134 0,4.875 1.782,10.853 1.782,16.479 0,4.42 0.776,16.151 -2.228,19.151 -0.551,0.548 -2.229,8.993 -2.229,9.798 0,2.996 -2.366,7.654 -3.568,10.243 -3.009,6.484 -6.03,14.934 -11.144,20.041 -5.737,5.729 -9.496,11.791 -16.495,16.479 -3.497,2.342 -6.114,6.171 -10.7,6.234 -2.589,0.036 -5.414,-2.673 -8.471,-2.673 -4.882,0 -10.429,-2.637 -15.604,-3.562 -3.879,-0.69202 -12.234,0.24799 -14.712,-2.228 -1.715,-1.715 -9.521,-1.285 -12.038,-2.228 -2.044,-0.76502 -6.628,-2.167 -8.47,-4.01 -3.851,-3.845 -11.146,-13.003 -11.146,-20.483 0,-5.055 -2.8,-11.125 -3.567,-16.481 -1.147,-8.022 -3.566,-15.822 -3.566,-24.048 0,-20.156 -3.567,-40.119 -3.567,-60.572 0,-36.846 4.34,-72.517 11.592,-107.78 3.321,-16.15 7.342,-32.374 12.483,-47.209 1.754,-5.063 2.943,-9.711 4.458,-14.252 3.235,-9.687 17.325,-16.43 26.752,-23.157" />
    <g
       style="stroke:#000000;stroke-width:1.22500002;stroke-linecap:square;stroke-miterlimit:10"
       id="g56"
       stroke-miterlimit="10">
      <g
         style="fill:none"
         id="g52">
        <path
           inkscape:connector-curvature="0"
           id="path34"
           d="m 107.61,87.904 c 12.651,-2.018 17.478,30.649 19.615,39.193 4.685,18.72 6.688,37.045 10.699,55.226" />
        <path
           inkscape:connector-curvature="0"
           id="path36"
           d="m 137.92,182.32 c 1.549,5.715 1.366,10.906 1.783,16.924 0.332,4.768 2.676,9.27 2.676,14.251 0,3.631 1.966,7.673 3.121,11.133 1.391,4.168 0.76399,9.983 2.675,13.808 4.747,9.491 6.374,21.041 9.361,31.176" />
        <path
           inkscape:connector-curvature="0"
           id="path38"
           d="m 157.54,269.62 c 4.307,7.641 4.602,16.314 8.472,24.051 1.527,3.056 2.352,6.134 4.012,8.906 1.25,2.088 3.623,3.284 4.458,4.454 5.436,7.606 5.35,20.345 5.35,30.284" />
        <path
           inkscape:connector-curvature="0"
           id="path40"
           d="m 179.83,337.31 c 1.344,14.467 -5.146,34.456 -12.482,46.319 -4.898,7.922 -9.614,14.955 -16.495,21.823 -1.86,1.858 -8.935,8.461 -11.146,8.461 -2.126,0 -3.566,2.606 -6.24,2.673 -1.196,0.031 -3.83,-1.523 -5.35,-1.781" />
        <path
           inkscape:connector-curvature="0"
           id="path42"
           d="M 128.12,414.81 C 109.504,409.497 88.677,409.154 73.73,401.449" />
        <path
           inkscape:connector-curvature="0"
           id="path44"
           d="m 73.727,401.44 c -4.839,-4.316 -11.591,-15.838 -11.591,-24.495 0,-6.799 -4.458,-14.681 -4.458,-21.823 0,-10.392 -3.545,-21.439 -3.567,-32.065" />
        <path
           inkscape:connector-curvature="0"
           id="path46"
           d="m 54.11,323.06 c 0,-44.94 -5.232,-92.157 7.133,-135.39" />
        <path
           inkscape:connector-curvature="0"
           id="path48"
           d="m 61.244,187.67 c 3.919,-27.403 11.583,-55.19 20.507,-78.385" />
        <path
           inkscape:connector-curvature="0"
           id="path50"
           d="m 81.751,109.28 c 1.24,-7.994 18.556,-16.167 25.858,-21.378" />
      </g>
      <path
         style="fill:#ffffff"
         inkscape:connector-curvature="0"
         id="path54"
         d="m 107.61,87.904 c 11.856,-1.891 16.844,27.133 18.493,35.366 2.018,10.079 5.821,19.731 7.364,29.658 1.223,7.868 3.565,15.427 3.565,23.159 0,5.889 2.045,11.858 2.675,17.815 0.30101,2.835 -0.62,10.068 1.339,12.025 2.094,2.092 3.192,13.303 4.012,16.479 0.90399,3.495 1.935,7.236 2.676,10.688 0.796,3.705 3.566,9.737 3.566,13.361 0,8.499 5.025,18.841 8.024,26.722 2.801,7.366 3.957,15.038 7.577,22.271 1.172,2.335 1.741,5.744 3.569,7.569 0.767,0.767 3.742,3.633 4.011,4.009 1.751,2.45 3.567,7.956 3.567,11.134 0,4.875 1.782,10.853 1.782,16.479 0,4.42 0.776,16.151 -2.228,19.151 -0.551,0.548 -2.229,8.993 -2.229,9.798 0,2.996 -2.366,7.654 -3.568,10.243 -3.009,6.484 -6.03,14.934 -11.144,20.041 -5.737,5.729 -9.496,11.791 -16.495,16.479 -3.497,2.342 -6.114,6.171 -10.7,6.234 -2.589,0.036 -5.414,-2.673 -8.471,-2.673 -4.882,0 -10.429,-2.637 -15.604,-3.562 -3.879,-0.69202 -12.234,0.24799 -14.712,-2.228 -1.715,-1.715 -9.521,-1.285 -12.038,-2.228 -2.044,-0.76502 -6.628,-2.167 -8.47,-4.01 -3.851,-3.845 -11.146,-13.003 -11.146,-20.483 0,-5.055 -2.8,-11.125 -3.567,-16.481 -1.147,-8.022 -3.566,-15.822 -3.566,-24.048 0,-20.156 -3.567,-40.119 -3.567,-60.572 0,-36.846 4.34,-72.517 11.592,-107.78 3.321,-16.15 7.342,-32.374 12.483,-47.209 1.754,-5.063 2.943,-9.711 4.458,-14.252 3.235,-9.687 17.325,-16.43 26.752,-23.157" />
    </g>
    <path
       style="fill:#5a3d1c;fill-rule:evenodd"
       inkscape:connector-curvature="0"
       id="path58"
       d="m 87.994,70.089 c 2.648,-2.873 7.704,-2.8 9.808,-5.344 1.201,-1.453 1.782,-7.702 1.782,-9.798 0,-2.779 2.748,-8.162 4.013,-10.69 2.641,-5.273 2.982,-10.304 4.013,-16.033 2.894,-16.085 14.433,11.225 16.049,16.924 1.577,5.558 6.244,15.141 3.121,21.377 -1.575,3.145 -0.868,7.546 -3.566,10.243 -2.25,2.249 -5.694,2.607 -7.58,5.791 -3.766,6.358 -0.89101,13.881 -0.89101,20.486 0,8.108 6.94,13.496 9.808,20.488 2.482,6.05 1.784,18.18 1.784,24.496 0,2.93 2.675,5.72 2.675,8.461 0,4.595 -0.623,8.898 -0.892,13.36 -0.925,15.309 0,28.665 0,43.647 0,17.089 0.151,34.063 -16.942,40.975 -5.481,2.216 -15.157,2.64 -15.157,10.242 v 11.136 c 0,4.352 -5.348,5.022 -8.024,7.124 -6.045,4.746 -5.352,8.629 -5.352,16.034 0,8.124 -7.759,11.281 -14.266,13.361 -10.497,3.355 -28.994,5.928 -35.666,-4.454 -2.526,-3.932 -6.241,-14.477 -6.241,-19.15 0,-6.441 -1.187,-11.023 -4.458,-18.262 -6.326,-13.993 8.468,-27.084 6.242,-40.974 -0.703,-4.378 -5.351,-7.104 -5.351,-11.133 0,-5.759 -0.892,-12.02 -0.892,-18.261 0,-10.725 -1.803,-18.867 -4.458,-28.504 -1.14,-4.14 -3.516,-10.788 -1.337,-15.142 0.274,-0.547 -4.356,-13.158 -5.35,-15.143 -0.94,-1.879 -0.419,-12.222 0.446,-14.251 2.137,-5.012 8.956,-8.943 11.591,-14.252 -0.352,0.591 -0.374,1.085 -0.892,1.782 -0.322,-4.71 3.059,-8.777 5.35,-12.47 1.021,-1.648 6.241,-7.708 6.241,-10.244 0,-6.498 -5.665,-7.491 -8.024,-12.025 -6.208,-11.931 -7.627,-31.065 -1.783,-43.646 1.944,-4.186 4.724,-7.704 7.133,-11.58 0.08,-0.128 5.349,-7.784 5.349,-4.899 0,6.216 1.187,10.545 2.675,16.479 1.153,4.597 2.7,8.072 4.459,11.579 1.59,3.17 3.566,6.515 3.566,10.244 0,3.15 0.959,8.325 -0.446,11.134 -2.931,5.855 9.87,5.51 12.151,5.176 9.771,-1.427 19.541,-2.855 29.312,-4.284" />
    <g
       style="stroke:#000000;stroke-width:1.22500002;stroke-linecap:square;stroke-miterlimit:10"
       id="g82"
       stroke-miterlimit="10">
      <g
         style="fill:none"
         id="g78">
        <path
           inkscape:connector-curvature="0"
           id="path60"
           d="m 87.994,70.089 c 2.022,-2.195 9.808,-3.803 9.808,-6.235 0,-2.271 1.107,-8.449 2.229,-10.688 1.892,-3.778 3.402,-7.611 4.904,-11.58 1.784,-4.713 0.766,-11.632 2.675,-16.034 2.748,-6.333 10.699,1.149 10.699,5.79 0,7.125 8.612,12.258 7.134,20.042" />
        <path
           inkscape:connector-curvature="0"
           id="path62"
           d="m 125.44,51.384 c 3.232,8.322 1.285,15.746 -1.338,23.605 -1.138,3.407 -6.373,3.381 -8.024,6.68 -2.122,4.237 -2.229,7.338 -2.229,12.025 0,7.917 1.632,15.064 5.349,21.823 5.171,9.406 6.242,13.918 6.242,24.941" />
        <path
           inkscape:connector-curvature="0"
           id="path64"
           d="m 125.44,140.46 c -1.117,7.43 3.566,13.928 3.566,21.378 0,4.729 1.669,26.835 -1.338,29.839 -2.31,2.309 0.446,13.355 0.446,16.479 0,8.402 1.435,18.911 -1.783,26.722" />
        <path
           inkscape:connector-curvature="0"
           id="path66"
           d="m 126.33,234.88 c -2.341,8.598 -2.492,12.461 -10.701,16.925 -4.198,2.283 -19.615,5.259 -19.615,11.578 0,9.247 1.247,14.968 -7.133,19.152 -7.534,3.763 -6.243,9.98 -6.243,17.368" />
        <path
           inkscape:connector-curvature="0"
           id="path68"
           d="m 82.642,299.9 c 1.532,12.362 -30.703,18.957 -39.231,14.698 -7.195,-3.594 -10.089,-4.251 -12.483,-12.025 -2.044,-6.639 -5.48,-12.971 -3.566,-18.705" />
        <path
           inkscape:connector-curvature="0"
           id="path70"
           d="m 27.362,283.87 c -1.08,-5.843 -9.503,-15.166 -7.579,-20.933 2.351,-7.048 2.715,-19.638 8.024,-24.941 5.669,-5.661 -3.225,-15.196 -4.904,-20.041 -3,-8.659 0.086,-20.178 -1.783,-29.394" />
        <path
           inkscape:connector-curvature="0"
           id="path72"
           d="m 21.12,188.56 c 0,-5.723 -0.601,-10.997 -3.121,-16.033 -2.354,-4.705 0.007,-18.925 -4.012,-20.933 -3.308,-1.652 -3.688,-14.967 -3.567,-18.26 0.347,-9.333 8.538,-12.541 12.483,-20.488 -0.352,0.591 -0.374,1.085 -0.892,1.782 -0.227,-3.315 1.723,-5.8 2.675,-8.907" />
        <path
           inkscape:connector-curvature="0"
           id="path74"
           d="m 24.687,105.72 c 3.315,-3.537 4.008,-7.568 7.579,-11.135 2.859,-2.856 1.752,-7.363 -1.337,-8.907 C 25.942,83.188 24.488,77.194 22.904,71.871 17.93,55.16 20.606,34.633 32.711,21.99" />
        <path
           inkscape:connector-curvature="0"
           id="path76"
           d="m 32.711,21.99 c 3.861,-7.868 3.248,2.629 3.566,5.344 0.852,7.239 3.515,17.762 8.471,22.714 5.288,5.283 -0.24,16.849 3.121,21.823 5.683,8.413 31.037,-0.453 40.125,-1.782" />
      </g>
      <path
         style="fill:#ffffff"
         inkscape:connector-curvature="0"
         id="path80"
         d="m 87.994,70.089 c 2.648,-2.873 7.704,-2.8 9.808,-5.344 1.201,-1.453 1.782,-7.702 1.782,-9.798 0,-2.779 2.748,-8.162 4.013,-10.69 2.641,-5.273 2.982,-10.304 4.013,-16.033 2.894,-16.085 14.433,11.225 16.049,16.924 1.577,5.558 6.244,15.141 3.121,21.377 -1.575,3.145 -0.868,7.546 -3.566,10.243 -2.25,2.249 -5.694,2.607 -7.58,5.791 -3.766,6.358 -0.89101,13.881 -0.89101,20.486 0,8.108 6.94,13.496 9.808,20.488 2.482,6.05 1.784,18.18 1.784,24.496 0,2.93 2.675,5.72 2.675,8.461 0,4.595 -0.623,8.898 -0.892,13.36 -0.925,15.309 0,28.665 0,43.647 0,17.089 0.151,34.063 -16.942,40.975 -5.481,2.216 -15.157,2.64 -15.157,10.242 v 11.136 c 0,4.352 -5.348,5.022 -8.024,7.124 -6.045,4.746 -5.352,8.629 -5.352,16.034 0,8.124 -7.759,11.281 -14.266,13.361 -10.497,3.355 -28.994,5.928 -35.666,-4.454 -2.526,-3.932 -6.241,-14.477 -6.241,-19.15 0,-6.441 -1.187,-11.023 -4.458,-18.262 -6.326,-13.993 8.468,-27.084 6.242,-40.974 -0.703,-4.378 -5.351,-7.104 -5.351,-11.133 0,-5.759 -0.892,-12.02 -0.892,-18.261 0,-10.725 -1.803,-18.867 -4.458,-28.504 -1.14,-4.14 -3.516,-10.788 -1.337,-15.142 0.274,-0.547 -4.356,-13.158 -5.35,-15.143 -0.94,-1.879 -0.419,-12.222 0.446,-14.251 2.137,-5.012 8.956,-8.943 11.591,-14.252 -0.352,0.591 -0.374,1.085 -0.892,1.782 -0.322,-4.71 3.059,-8.777 5.35,-12.47 1.021,-1.648 6.241,-7.708 6.241,-10.244 0,-6.498 -5.665,-7.491 -8.024,-12.025 -6.208,-11.931 -7.627,-31.065 -1.783,-43.646 1.944,-4.186 4.724,-7.704 7.133,-11.58 0.08,-0.128 5.349,-7.784 5.349,-4.899 0,6.216 1.187,10.545 2.675,16.479 1.153,4.597 2.7,8.072 4.459,11.579 1.59,3.17 3.566,6.515 3.566,10.244 0,3.15 0.959,8.325 -0.446,11.134 -2.931,5.855 9.87,5.51 12.151,5.176 9.771,-1.427 19.541,-2.855 29.312,-4.284" />
    </g>
    <path
       style="fill:#805628;fill-rule:evenodd"
       inkscape:connector-curvature="0"
       id="path84"
       d="M 64.811,64.746 C 51.789,57.91 46.674,43.682 54.111,30.007 62.264,15.015 77.479,9.23 93.343,7.738 86.552,13.261 77.555,15.493 71.052,21.99 c -3.075,3.071 -5.927,8.831 -8.025,9.798 4.475,-5.186 12.547,-12.47 20.953,-12.47 4.385,0 14.724,-0.653 17.387,-2.673 -8.907,2.098 -22.42,9.809 -25.857,18.706 3.202,-11.48 18.87,-6.565 26.75,-7.126 v 0.891 C 94.097,24.342 82.656,40.262 81.751,46.93 c -0.985,7.272 0.862,24.215 11.592,20.487 -5.275,8.995 5.377,30.228 12.482,36.521 -5.759,2.304 -13.08,-0.094 -16.941,-4.454 0.533,8.215 10.069,14.717 16.05,16.924 -6.638,-0.828 -22.648,-4.125 -25.858,-10.688 -0.562,6.67 2.365,9.359 6.241,14.251 2.141,2.7 4.535,7.738 8.025,8.907 -12.977,0 -26.781,0.825 -34.774,-10.688 -0.309,3.959 1.229,7.594 0.891,11.58 -11.63,-3.604 -22.291,-17.016 -22.291,-28.504 9.99e-4,-12.85 12.62,-37.532 27.643,-36.52" />
    <g
       style="stroke:#000000;stroke-width:1.22500002;stroke-linecap:square;stroke-miterlimit:10"
       id="g112"
       stroke-miterlimit="10">
      <g
         style="fill:none"
         id="g100">
        <path
           inkscape:connector-curvature="0"
           id="path86"
           d="M 64.811,64.746 C 51.789,57.91 46.674,43.682 54.111,30.007 62.264,15.015 77.479,9.23 93.343,7.738 92.45099,8.332 91.56,8.926 90.668,9.519" />
        <path
           inkscape:connector-curvature="0"
           id="path88"
           d="m 90.667,9.52 c -6.88,0.885 -15.66,8.518 -20.507,13.361 -2.913,2.909 -5.043,7.944 -7.134,8.907 4.475,-5.186 12.547,-12.47 20.953,-12.47 4.385,0 14.724,-0.653 17.387,-2.673 -5.739,1.353 -11.832,3.988 -16.049,8.017" />
        <path
           inkscape:connector-curvature="0"
           id="path90"
           d="m 85.317,24.662 c -3.456,3.453 -8.167,6.444 -9.808,10.689 3.202,-11.48 18.87,-6.565 26.75,-7.126 v 0.891 C 95.383,25.095 86.9,37.333 83.088,41.141 79.283,44.94 80.856,59.295 84.425,62.964" />
        <path
           inkscape:connector-curvature="0"
           id="path92"
           d="m 84.426,62.964 c 1.101,4.707 4.065,6.139 8.917,4.453 -5.275,8.995 5.377,30.228 12.482,36.521 -5.759,2.304 -13.08,-0.094 -16.941,-4.454 0.308,4.733 3.688,8.505 7.133,11.58" />
        <path
           inkscape:connector-curvature="0"
           id="path94"
           d="m 96.018,111.06 c 2.716,2.859 5.901,4.231 8.917,5.344 -6.638,-0.828 -22.648,-4.125 -25.858,-10.688 -0.562,6.67 2.365,9.359 6.241,14.251 2.141,2.7 4.535,7.738 8.025,8.907 -8.335,0 -16.569,1.067 -24.075,-2.671" />
        <path
           inkscape:connector-curvature="0"
           id="path96"
           d="m 69.268,126.21 c -4.577,-1.03 -8.221,-4.447 -10.699,-8.017 -0.309,3.959 1.229,7.594 0.891,11.58 -6.674,-2.068 -20.508,-12.777 -20.508,-20.488 0,-3.863 -2.38,-8.846 -0.891,-14.251 1.978,-7.18 6.598,-14.55 10.7,-21.377" />
        <path
           inkscape:connector-curvature="0"
           id="path98"
           d="m 48.761,73.653 c 3.847,-5.445 9.118,-9.374 16.05,-8.907" />
      </g>
      <path
         style="fill:#ffffff"
         inkscape:connector-curvature="0"
         id="path102"
         d="M 64.811,64.746 C 51.789,57.91 46.674,43.682 54.111,30.007 62.264,15.015 77.479,9.23 93.343,7.738 86.552,13.261 77.555,15.493 71.052,21.99 c -3.075,3.071 -5.927,8.831 -8.025,9.798 4.475,-5.186 12.547,-12.47 20.953,-12.47 4.385,0 14.724,-0.653 17.387,-2.673 -8.907,2.098 -22.42,9.809 -25.857,18.706 3.202,-11.48 18.87,-6.565 26.75,-7.126 v 0.891 C 94.097,24.342 82.656,40.262 81.751,46.93 c -0.985,7.272 0.862,24.215 11.592,20.487 -5.275,8.995 5.377,30.228 12.482,36.521 -5.759,2.304 -13.08,-0.094 -16.941,-4.454 0.533,8.215 10.069,14.717 16.05,16.924 -6.638,-0.828 -22.648,-4.125 -25.858,-10.688 -0.562,6.67 2.365,9.359 6.241,14.251 2.141,2.7 4.535,7.738 8.025,8.907 -12.977,0 -26.781,0.825 -34.774,-10.688 -0.309,3.959 1.229,7.594 0.891,11.58 -11.63,-3.604 -22.291,-17.016 -22.291,-28.504 9.99e-4,-12.85 12.62,-37.532 27.643,-36.52" />
      <g
         style="fill:none"
         id="g110">
        <path
           inkscape:connector-curvature="0"
           id="path104"
           d="m 46.978,70.089 c -1.79,3.052 -3.201,6.143 -5.35,8.908" />
        <path
           inkscape:connector-curvature="0"
           id="path106"
           d="m 46.978,70.089 c -1.79,3.052 -3.201,6.143 -5.35,8.908" />
        <line
           id="line108"
           y2="0.61199999"
           y1="0.61199999"
           x2="0.61199999"
           x1="0.61199999" />
      </g>
    </g>
    <path
       style="fill:#323232;fill-rule:evenodd"
       inkscape:connector-curvature="0"
       id="path114"
       d="M 41.628,60.291 C 42.519,48.372 31.002,39.785 31.82,28.225 c -1.699,5.382 -5.196,12.774 -3.566,18.705 1.86,6.771 9.544,8.203 13.374,13.361" />
    <g
       style="fill:none;stroke:#000000;stroke-width:1.22500002;stroke-linecap:square;stroke-miterlimit:10"
       id="g128"
       stroke-miterlimit="10">
      <path
         inkscape:connector-curvature="0"
         id="path116"
         d="M 41.628,60.291 C 42.519,48.372 31.002,39.785 31.82,28.225 c -1.699,5.382 -5.196,12.774 -3.566,18.705 1.86,6.771 9.544,8.203 13.374,13.361" />
      <path
         inkscape:connector-curvature="0"
         id="path118"
         d="M 41.628,60.291 C 42.519,48.372 31.002,39.785 31.82,28.225 c -1.699,5.382 -5.196,12.774 -3.566,18.705 1.86,6.771 9.544,8.203 13.374,13.361" />
      <path
         inkscape:connector-curvature="0"
         id="path120"
         d="m 31.82,28.225 c 1.301,5.493 2.529,14.735 7.132,18.705" />
      <path
         inkscape:connector-curvature="0"
         id="path122"
         d="m 31.82,28.225 c 1.301,5.493 2.529,14.735 7.132,18.705" />
      <path
         inkscape:connector-curvature="0"
         id="path124"
         d="m 38.952,46.93 c 2.376,7.984 3.802,13.047 -0.891,21.378" />
      <path
         inkscape:connector-curvature="0"
         id="path126"
         d="m 38.952,46.93 c 2.376,7.984 3.802,13.047 -0.891,21.378" />
    </g>
    <path
       style="fill:#323232;fill-rule:evenodd"
       inkscape:connector-curvature="0"
       id="path130"
       d="m 101.37,60.291 c 0.361,-5.556 6.242,-11.039 6.242,-16.033 0,-2.598 1.98,-15.142 4.458,-15.142 7.283,0 8.024,25.296 8.024,30.286 -0.65401,-3.523 -5.755,-10.689 -9.808,-10.689 -1.926,-9.99e-4 -8.076,10.081 -8.916,11.578" />
    <g
       style="fill:none;stroke:#000000;stroke-width:1.22500002;stroke-linecap:square;stroke-miterlimit:10"
       id="g176"
       stroke-miterlimit="10">
      <path
         inkscape:connector-curvature="0"
         id="path132"
         d="m 101.37,60.291 c 0.361,-5.556 6.242,-11.039 6.242,-16.033 0,-2.598 1.98,-15.142 4.458,-15.142 7.283,0 8.024,25.296 8.024,30.286 -0.65401,-3.523 -5.755,-10.689 -9.808,-10.689 -1.926,-9.99e-4 -8.076,10.081 -8.916,11.578" />
      <line
         id="line134"
         y2="0.61199999"
         y1="0.61199999"
         x2="0.61199999"
         x1="0.61199999" />
      <path
         inkscape:connector-curvature="0"
         id="path136"
         d="m 101.37,60.291 c 0.361,-5.556 6.242,-11.039 6.242,-16.033 0,-2.598 1.98,-15.142 4.458,-15.142 7.283,0 8.024,25.296 8.024,30.286 -0.65401,-3.523 -5.755,-10.689 -9.808,-10.689 -1.926,-9.99e-4 -8.076,10.081 -8.916,11.578" />
      <path
         inkscape:connector-curvature="0"
         id="path138"
         d="m 110.28,30.006 c -0.186,8.834 -4.968,19.336 -8.024,27.613" />
      <path
         inkscape:connector-curvature="0"
         id="path140"
         d="m 110.28,30.006 c -0.186,8.834 -4.968,19.336 -8.024,27.613" />
      <path
         inkscape:connector-curvature="0"
         id="path142"
         d="m 102.26,57.62 c 0,4.302 -0.956,8.989 1.782,12.47" />
      <path
         inkscape:connector-curvature="0"
         id="path144"
         d="m 102.26,57.62 c 0,4.302 -0.956,8.989 1.782,12.47" />
      <path
         inkscape:connector-curvature="0"
         id="path146"
         d="m 104.04,70.089 c 3.286,1.369 8.024,5.355 5.35,9.798" />
      <path
         inkscape:connector-curvature="0"
         id="path148"
         d="m 104.04,70.089 c 3.286,1.369 8.024,5.355 5.35,9.798" />
      <path
         inkscape:connector-curvature="0"
         id="path150"
         d="m 109.39,79.888 c -1.295,2.056 -2.087,3.923 -2.675,6.236" />
      <path
         inkscape:connector-curvature="0"
         id="path152"
         d="m 109.39,79.888 c -1.295,2.056 -2.087,3.923 -2.675,6.236" />
      <path
         inkscape:connector-curvature="0"
         id="path154"
         d="M 65.702,59.401 C 61.016,50.789 54.11,44.028 54.11,31.788" />
      <path
         inkscape:connector-curvature="0"
         id="path156"
         d="M 65.702,59.401 C 61.016,50.789 54.11,44.028 54.11,31.788" />
      <path
         inkscape:connector-curvature="0"
         id="path158"
         d="m 54.11,31.788 c 2.282,-1.888 2.552,-4.329 4.905,-6.68 2.147,-2.146 7.593,-4.93 8.915,-7.572 2.895,-5.784 17.633,-8.139 22.737,-9.798" />
      <path
         inkscape:connector-curvature="0"
         id="path160"
         d="m 54.11,31.788 c 2.282,-1.888 2.552,-4.329 4.905,-6.68 2.147,-2.146 7.593,-4.93 8.915,-7.572 2.895,-5.784 17.633,-8.139 22.737,-9.798" />
      <path
         inkscape:connector-curvature="0"
         id="path162"
         d="M 66.593,58.51 C 62.002,51.63 59.312,44.497 56.785,36.242" />
      <path
         inkscape:connector-curvature="0"
         id="path164"
         d="M 66.593,58.51 C 62.002,51.63 59.312,44.497 56.785,36.242" />
      <path
         inkscape:connector-curvature="0"
         id="path166"
         d="M 56.786,36.242 C 55.626,23.122 79.324,13.952 87.994,9.519" />
      <path
         inkscape:connector-curvature="0"
         id="path168"
         d="M 56.786,36.242 C 55.626,23.122 79.324,13.952 87.994,9.519" />
      <line
         id="line170"
         y2="0.61199999"
         y1="0.61199999"
         x2="0.61199999"
         x1="0.61199999" />
      <path
         inkscape:connector-curvature="0"
         id="path172"
         d="M 68.376,56.729 C 62.36,53.401 64.398,43.437 61.689,38.023 58.644,31.939 64.43,24.435 69.268,21.99" />
      <path
         inkscape:connector-curvature="0"
         id="path174"
         d="M 68.376,56.729 C 62.36,53.401 64.398,43.437 61.689,38.023 58.644,31.939 64.43,24.435 69.268,21.99" />
    </g>
    <path
       style="fill:#181819;fill-rule:evenodd"
       inkscape:connector-curvature="0"
       id="path178"
       d="m 120.09,140.46 c -1.276,5.376 -3.28,13.458 -10.699,12.471 -2.09,-0.27699 -4.131,-2.454 -5.796,-3.563 -2.641,-1.758 1.338,-4.42 1.338,-7.125 0,-3.19 12.535,-1.783 15.157,-1.783" />
    <g
       style="fill:none;stroke:#000000;stroke-width:1.22500002;stroke-linecap:square;stroke-miterlimit:10"
       id="g224"
       stroke-miterlimit="10">
      <path
         inkscape:connector-curvature="0"
         id="path180"
         d="m 120.09,140.46 c -1.276,5.376 -3.28,13.458 -10.699,12.471 -2.09,-0.27699 -4.131,-2.454 -5.796,-3.563 -2.641,-1.758 1.338,-4.42 1.338,-7.125 0,-3.19 12.535,-1.783 15.157,-1.783" />
      <path
         inkscape:connector-curvature="0"
         id="path182"
         d="m 120.09,140.46 c -1.276,5.376 -3.28,13.458 -10.699,12.471 -2.09,-0.27699 -4.131,-2.454 -5.796,-3.563 -2.641,-1.758 1.338,-4.42 1.338,-7.125 0,-3.19 12.535,-1.783 15.157,-1.783" />
      <path
         inkscape:connector-curvature="0"
         id="path184"
         d="m 123.66,136.9 c -3.946,-0.67801 -9.226,-3.488 -12.483,0" />
      <path
         inkscape:connector-curvature="0"
         id="path186"
         d="m 123.66,136.9 c -3.946,-0.67801 -9.226,-3.488 -12.483,0" />
      <path
         inkscape:connector-curvature="0"
         id="path188"
         d="m 111.18,136.9 c -4.148,1.297 -6.36,5.983 -8.024,9.798" />
      <path
         inkscape:connector-curvature="0"
         id="path190"
         d="m 111.18,136.9 c -4.148,1.297 -6.36,5.983 -8.024,9.798" />
      <path
         inkscape:connector-curvature="0"
         id="path192"
         d="m 103.15,146.69 c -1.288,3.646 -3.484,6.821 -6.242,8.017" />
      <path
         inkscape:connector-curvature="0"
         id="path194"
         d="m 103.15,146.69 c -1.288,3.646 -3.484,6.821 -6.242,8.017" />
      <path
         inkscape:connector-curvature="0"
         id="path196"
         d="m 96.908,154.71 c -0.818,0.729 -1.415,1.628 -1.782,2.672" />
      <path
         inkscape:connector-curvature="0"
         id="path198"
         d="m 96.908,154.71 c -0.818,0.729 -1.415,1.628 -1.782,2.672" />
      <line
         id="line200"
         y2="0.61199999"
         y1="0.61199999"
         x2="0.61199999"
         x1="0.61199999" />
      <path
         inkscape:connector-curvature="0"
         id="path202"
         d="m 122.77,141.35 c -4.746,-1.952 -10.975,-0.89101 -16.049,-0.89101" />
      <path
         inkscape:connector-curvature="0"
         id="path204"
         d="m 122.77,141.35 c -4.746,-1.952 -10.975,-0.89101 -16.049,-0.89101" />
      <path
         inkscape:connector-curvature="0"
         id="path206"
         d="m 122.77,143.13 c 0.296,4.316 -3.646,10.992 -7.134,13.361" />
      <path
         inkscape:connector-curvature="0"
         id="path208"
         d="m 122.77,143.13 c 0.296,4.316 -3.646,10.992 -7.134,13.361" />
      <path
         inkscape:connector-curvature="0"
         id="path210"
         d="m 115.63,156.49 c -3.152,1.262 -6.465,0.89099 -9.807,0.89099" />
      <path
         inkscape:connector-curvature="0"
         id="path212"
         d="m 115.63,156.49 c -3.152,1.262 -6.465,0.89099 -9.807,0.89099" />
      <path
         inkscape:connector-curvature="0"
         id="path214"
         d="m 105.82,157.38 c -0.231,-1.863 -0.994,-2.868 -2.675,-2.672" />
      <path
         inkscape:connector-curvature="0"
         id="path216"
         d="m 105.82,157.38 c -0.231,-1.863 -0.994,-2.868 -2.675,-2.672" />
      <path
         inkscape:connector-curvature="0"
         id="path218"
         d="m 103.15,154.71 c -1.381,0.401 -2.272,1.292 -2.674,2.672" />
      <path
         inkscape:connector-curvature="0"
         id="path220"
         d="m 103.15,154.71 c -1.381,0.401 -2.272,1.292 -2.674,2.672" />
      <line
         id="line222"
         y2="0.61199999"
         y1="0.61199999"
         x2="0.61199999"
         x1="0.61199999" />
    </g>
    <path
       style="fill:#181819;fill-rule:evenodd"
       inkscape:connector-curvature="0"
       id="path226"
       d="m 28.254,150.26 c -10.582,6.029 -13.381,-1.23 -16.05,-10.688 0.454,0.75 0.574,1.065 0.892,1.782 7.24,-3.713 13.169,2.413 15.158,8.906" />
    <g
       style="fill:none;stroke:#000000;stroke-width:1.22500002;stroke-linecap:square;stroke-miterlimit:10"
       id="g344"
       stroke-miterlimit="10">
      <path
         inkscape:connector-curvature="0"
         id="path228"
         d="m 28.254,150.26 c -10.582,6.029 -13.381,-1.23 -16.05,-10.688 0.454,0.75 0.574,1.065 0.892,1.782 7.24,-3.713 13.169,2.413 15.158,8.906" />
      <path
         inkscape:connector-curvature="0"
         id="path230"
         d="m 28.254,150.26 c -10.582,6.029 -13.381,-1.23 -16.05,-10.688 0.454,0.75 0.574,1.065 0.892,1.782 7.24,-3.713 13.169,2.413 15.158,8.906" />
      <path
         inkscape:connector-curvature="0"
         id="path232"
         d="m 31.82,151.15 c -2.151,0.28 -3.73,-0.646 -4.458,-2.672" />
      <path
         inkscape:connector-curvature="0"
         id="path234"
         d="m 31.82,151.15 c -2.151,0.28 -3.73,-0.646 -4.458,-2.672" />
      <path
         inkscape:connector-curvature="0"
         id="path236"
         d="m 27.362,148.48 c -0.25,-2.817 -1.736,-5.266 -4.458,-6.235" />
      <path
         inkscape:connector-curvature="0"
         id="path238"
         d="m 27.362,148.48 c -0.25,-2.817 -1.736,-5.266 -4.458,-6.235" />
      <path
         inkscape:connector-curvature="0"
         id="path240"
         d="m 22.903,142.24 c -3.015,-2.138 -6.451,-2.271 -9.808,-0.89099" />
      <path
         inkscape:connector-curvature="0"
         id="path242"
         d="m 22.903,142.24 c -3.015,-2.138 -6.451,-2.271 -9.808,-0.89099" />
      <path
         inkscape:connector-curvature="0"
         id="path244"
         d="m 13.095,141.35 c -1.709,0.76199 -3.492,1.058 -5.35,0.89101" />
      <path
         inkscape:connector-curvature="0"
         id="path246"
         d="m 13.095,141.35 c -1.709,0.76199 -3.492,1.058 -5.35,0.89101" />
      <line
         id="line248"
         y2="0.61199999"
         y1="0.61199999"
         x2="0.61199999"
         x1="0.61199999" />
      <path
         inkscape:connector-curvature="0"
         id="path250"
         d="m 24.687,142.24 c -3.478,-2.457 -7.161,-9.983 -12.483,-6.235" />
      <path
         inkscape:connector-curvature="0"
         id="path252"
         d="m 24.687,142.24 c -3.478,-2.457 -7.161,-9.983 -12.483,-6.235" />
      <path
         inkscape:connector-curvature="0"
         id="path254"
         d="m 23.795,160.94 c -2.604,-1.551 -4.74,-4 -7.133,-5.345" />
      <path
         inkscape:connector-curvature="0"
         id="path256"
         d="m 23.795,160.94 c -2.604,-1.551 -4.74,-4 -7.133,-5.345" />
      <line
         id="line258"
         y2="0.61199999"
         y1="0.61199999"
         x2="0.61199999"
         x1="0.61199999" />
      <path
         inkscape:connector-curvature="0"
         id="path260"
         d="m 34.495,136.9 c -0.65,4.562 2.715,10.544 6.241,13.361" />
      <path
         inkscape:connector-curvature="0"
         id="path262"
         d="m 34.495,136.9 c -0.65,4.562 2.715,10.544 6.241,13.361" />
      <path
         inkscape:connector-curvature="0"
         id="path264"
         d="m 40.736,150.26 c 4.077,4.007 2.191,8.548 1.784,13.362" />
      <path
         inkscape:connector-curvature="0"
         id="path266"
         d="m 40.736,150.26 c 4.077,4.007 2.191,8.548 1.784,13.362" />
      <path
         inkscape:connector-curvature="0"
         id="path268"
         d="m 42.52,163.62 c -2.718,4.946 -2.507,13.669 -3.567,19.596 -1.088,6.085 -5.25,15.912 -0.891,21.377" />
      <path
         inkscape:connector-curvature="0"
         id="path270"
         d="m 42.52,163.62 c -2.718,4.946 -2.507,13.669 -3.567,19.596 -1.088,6.085 -5.25,15.912 -0.891,21.377" />
      <path
         inkscape:connector-curvature="0"
         id="path272"
         d="m 38.061,204.59 c -3.521,6.085 -8.047,19.932 -7.133,26.722" />
      <path
         inkscape:connector-curvature="0"
         id="path274"
         d="m 38.061,204.59 c -3.521,6.085 -8.047,19.932 -7.133,26.722" />
      <line
         id="line276"
         y2="0.61199999"
         y1="0.61199999"
         x2="0.61199999"
         x1="0.61199999" />
      <path
         inkscape:connector-curvature="0"
         id="path278"
         d="m 88.884,141.35 c -0.60001,7.302 -8.51,7.927 -11.591,13.361" />
      <path
         inkscape:connector-curvature="0"
         id="path280"
         d="m 88.884,141.35 c -0.60001,7.302 -8.51,7.927 -11.591,13.361" />
      <path
         inkscape:connector-curvature="0"
         id="path282"
         d="m 77.293,154.71 c -2.604,5.197 -4.222,13.681 -1.784,19.596" />
      <path
         inkscape:connector-curvature="0"
         id="path284"
         d="m 77.293,154.71 c -2.604,5.197 -4.222,13.681 -1.784,19.596" />
      <path
         inkscape:connector-curvature="0"
         id="path286"
         d="m 75.51,174.31 c 0,7.896 -2.384,15.484 -1.783,23.159" />
      <path
         inkscape:connector-curvature="0"
         id="path288"
         d="m 75.51,174.31 c 0,7.896 -2.384,15.484 -1.783,23.159" />
      <path
         inkscape:connector-curvature="0"
         id="path290"
         d="m 73.727,197.46 c -0.751,13.871 8.229,27.917 4.458,41.865" />
      <path
         inkscape:connector-curvature="0"
         id="path292"
         d="m 73.727,197.46 c -0.751,13.871 8.229,27.917 4.458,41.865" />
      <path
         inkscape:connector-curvature="0"
         id="path294"
         d="m 78.185,239.33 c 2.965,2.816 8.325,2.853 8.025,8.017" />
      <path
         inkscape:connector-curvature="0"
         id="path296"
         d="m 78.185,239.33 c 2.965,2.816 8.325,2.853 8.025,8.017" />
      <path
         inkscape:connector-curvature="0"
         id="path298"
         d="m 86.21,247.35 c 2.352,7.063 1.784,14.727 1.784,22.269" />
      <path
         inkscape:connector-curvature="0"
         id="path300"
         d="m 86.21,247.35 c 2.352,7.063 1.784,14.727 1.784,22.269" />
      <path
         inkscape:connector-curvature="0"
         id="path302"
         d="m 87.994,269.62 c -2.525,5.043 -6.313,8.629 -8.917,13.36" />
      <path
         inkscape:connector-curvature="0"
         id="path304"
         d="m 87.994,269.62 c -2.525,5.043 -6.313,8.629 -8.917,13.36" />
      <path
         inkscape:connector-curvature="0"
         id="path306"
         d="m 79.076,282.98 c 0,5.576 -0.48399,10.318 -2.675,15.143" />
      <path
         inkscape:connector-curvature="0"
         id="path308"
         d="m 79.076,282.98 c 0,5.576 -0.48399,10.318 -2.675,15.143" />
      <line
         id="line310"
         y2="0.61199999"
         y1="0.61199999"
         x2="0.61199999"
         x1="0.61199999" />
      <path
         inkscape:connector-curvature="0"
         id="path312"
         d="m 76.401,298.12 c 2.105,-1.245 4.701,-3.026 7.133,-3.562 -0.59499,0.59201 -1.18,1.197 -1.784,1.779" />
      <path
         inkscape:connector-curvature="0"
         id="path314"
         d="m 76.401,298.12 c 2.105,-1.245 4.701,-3.026 7.133,-3.562 -0.59499,0.59201 -1.18,1.197 -1.784,1.779" />
      <path
         inkscape:connector-curvature="0"
         id="path316"
         d="m 81.751,296.34 c -7.345,6.067 -18.857,11.22 -28.532,9.8" />
      <path
         inkscape:connector-curvature="0"
         id="path318"
         d="m 81.751,296.34 c -7.345,6.067 -18.857,11.22 -28.532,9.8" />
      <path
         inkscape:connector-curvature="0"
         id="path320"
         d="M 53.219,306.14 C 46.15,306.126 35.598,303.364 30.928,299.904" />
      <path
         inkscape:connector-curvature="0"
         id="path322"
         d="M 53.219,306.14 C 46.15,306.126 35.598,303.364 30.928,299.904" />
      <path
         inkscape:connector-curvature="0"
         id="path324"
         d="m 73.727,201.03 c -3.388,4.395 -4.1,11.49 -8.916,14.252" />
      <path
         inkscape:connector-curvature="0"
         id="path326"
         d="m 73.727,201.03 c -3.388,4.395 -4.1,11.49 -8.916,14.252" />
      <path
         inkscape:connector-curvature="0"
         id="path328"
         d="m 64.811,215.28 c 0,7.859 0.86301,15.804 0.89101,23.159" />
      <path
         inkscape:connector-curvature="0"
         id="path330"
         d="m 64.811,215.28 c 0,7.859 0.86301,15.804 0.89101,23.159" />
      <line
         id="line332"
         y2="0.61199999"
         y1="0.61199999"
         x2="0.61199999"
         x1="0.61199999" />
      <path
         inkscape:connector-curvature="0"
         id="path334"
         d="m 37.169,204.59 c 2.208,1.7 4.134,3.646 4.458,6.236" />
      <path
         inkscape:connector-curvature="0"
         id="path336"
         d="m 37.169,204.59 c 2.208,1.7 4.134,3.646 4.458,6.236" />
      <path
         inkscape:connector-curvature="0"
         id="path338"
         d="m 41.628,210.83 c 0,8.119 -0.626,16.207 -0.892,24.049" />
      <path
         inkscape:connector-curvature="0"
         id="path340"
         d="m 41.628,210.83 c 0,8.119 -0.626,16.207 -0.892,24.049" />
      <line
         id="line342"
         y2="0.61199999"
         y1="0.61199999"
         x2="0.61199999"
         x1="0.61199999" />
    </g>
    <path
       style="fill:#2e1f0e;fill-rule:evenodd"
       inkscape:connector-curvature="0"
       id="path346"
       d="m 67.485,255.36 c 12.833,-3.442 21.425,11.99 9.809,20.487 -4.599,3.363 -10.795,2.063 -8.471,-4.899 2.175,-6.517 6.491,-10.795 -1.338,-15.588" />
    <g
       style="fill:none;stroke:#000000;stroke-width:1.22500002;stroke-linecap:square;stroke-miterlimit:10"
       id="g352"
       stroke-miterlimit="10">
      <path
         inkscape:connector-curvature="0"
         id="path348"
         d="m 67.485,255.36 c 12.833,-3.442 21.425,11.99 9.809,20.487 -4.599,3.363 -10.795,2.063 -8.471,-4.899 2.175,-6.517 6.491,-10.795 -1.338,-15.588" />
      <path
         inkscape:connector-curvature="0"
         id="path350"
         d="m 67.485,255.36 c 12.833,-3.442 21.425,11.99 9.809,20.487 -4.599,3.363 -10.795,2.063 -8.471,-4.899 2.175,-6.517 6.491,-10.795 -1.338,-15.588" />
    </g>
    <path
       style="fill:#2e1f0e;fill-rule:evenodd"
       inkscape:connector-curvature="0"
       id="path354"
       d="m 35.386,253.58 c -3.501,0.761 -10.699,2.182 -10.699,7.125 0,5.021 1.575,15.294 6.241,17.815 1.199,0.647 4.639,1.6 5.796,0.444 3.62,-3.615 0.781,-3.003 -0.892,-8.016 -2.375,-7.118 -8.087,-10.34 -0.446,-17.368" />
    <g
       style="stroke:#000000;stroke-linecap:square"
       id="g430">
      <g
         style="stroke-width:1.22500002"
         id="g412">
        <g
           style="fill:none;stroke-miterlimit:10"
           id="g394"
           stroke-miterlimit="10">
          <path
             inkscape:connector-curvature="0"
             id="path356"
             d="m 35.386,253.58 c -3.501,0.761 -10.699,2.182 -10.699,7.125 0,5.021 1.575,15.294 6.241,17.815 1.199,0.647 4.639,1.6 5.796,0.444 3.62,-3.615 0.781,-3.003 -0.892,-8.016 -2.375,-7.118 -8.087,-10.34 -0.446,-17.368" />
          <path
             inkscape:connector-curvature="0"
             id="path358"
             d="m 35.386,253.58 c -3.501,0.761 -10.699,2.182 -10.699,7.125 0,5.021 1.575,15.294 6.241,17.815 1.199,0.647 4.639,1.6 5.796,0.444 3.62,-3.615 0.781,-3.003 -0.892,-8.016 -2.375,-7.118 -8.087,-10.34 -0.446,-17.368" />
          <path
             inkscape:connector-curvature="0"
             id="path360"
             d="m 63.027,255.36 c -1.116,3.45 -4.362,5.646 -6.241,8.907" />
          <path
             inkscape:connector-curvature="0"
             id="path362"
             d="m 63.027,255.36 c -1.116,3.45 -4.362,5.646 -6.241,8.907" />
          <path
             inkscape:connector-curvature="0"
             id="path364"
             d="m 56.786,264.27 c -0.979,0 -0.979,0 0,0" />
          <path
             inkscape:connector-curvature="0"
             id="path366"
             d="m 56.786,264.27 c -0.979,0 -0.979,0 0,0" />
          <path
             inkscape:connector-curvature="0"
             id="path368"
             d="m 56.786,264.27 c 2.959,4.592 2.674,9.007 2.674,14.252" />
          <path
             inkscape:connector-curvature="0"
             id="path370"
             d="m 56.786,264.27 c 2.959,4.592 2.674,9.007 2.674,14.252" />
          <line
             id="line372"
             y2="0.61199999"
             y1="0.61199999"
             x2="0.61199999"
             x1="0.61199999" />
          <path
             inkscape:connector-curvature="0"
             id="path374"
             d="m 41.628,254.47 c 0.745,3.092 4.025,5.675 5.35,8.905" />
          <path
             inkscape:connector-curvature="0"
             id="path376"
             d="m 41.628,254.47 c 0.745,3.092 4.025,5.675 5.35,8.905" />
          <path
             inkscape:connector-curvature="0"
             id="path378"
             d="m 46.978,263.38 c -1.68,4.654 -1.783,9.234 -1.783,14.253" />
          <path
             inkscape:connector-curvature="0"
             id="path380"
             d="m 46.978,263.38 c -1.68,4.654 -1.783,9.234 -1.783,14.253" />
          <path
             inkscape:connector-curvature="0"
             id="path382"
             d="m 107.61,246.46 c -1.583,4.22 -3.833,8.248 -5.349,11.58" />
          <path
             inkscape:connector-curvature="0"
             id="path384"
             d="m 107.61,246.46 c -1.583,4.22 -3.833,8.248 -5.349,11.58" />
          <path
             inkscape:connector-curvature="0"
             id="path386"
             d="m 128.12,186.78 c 0.493,6.634 -3.525,17.912 -8.917,22.269" />
          <path
             inkscape:connector-curvature="0"
             id="path388"
             d="m 128.12,186.78 c 0.493,6.634 -3.525,17.912 -8.917,22.269" />
          <path
             inkscape:connector-curvature="0"
             id="path390"
             d="m 119.2,209.04 c -4.01,6.012 -11.684,15.616 -11.591,23.16" />
          <path
             inkscape:connector-curvature="0"
             id="path392"
             d="m 119.2,209.04 c -4.01,6.012 -11.684,15.616 -11.591,23.16" />
        </g>
        <path
           style="fill:#ffffff;stroke-dasharray:none"
           inkscape:connector-curvature="0"
           id="path396"
           stroke-linejoin="null"
           d="M 59.19,97.689 C 68.2347,110.386 80.614,88.4435 74.6,78.423 69.9676,74.4363 -0.75,-23.337 -2.667,-24.817 l 61.856,122.51 z" />
        <g
           style="fill:none;stroke-miterlimit:10"
           id="g410"
           stroke-miterlimit="10">
          <line
             id="line398"
             y2="0.61199999"
             y1="0.61199999"
             x2="0.61199999"
             x1="0.61199999" />
          <path
             inkscape:connector-curvature="0"
             id="path400"
             d="m 60.352,315.93 c 2.967,26.618 17.903,54.483 24.074,79.277" />
          <path
             inkscape:connector-curvature="0"
             id="path402"
             d="m 60.352,315.93 c 2.967,26.618 17.903,54.483 24.074,79.277" />
          <path
             inkscape:connector-curvature="0"
             id="path404"
             d="m 145.95,288.32 c -0.66499,7.144 0.893,14.725 0.893,22.269 0,9.915 -0.893,20.261 -0.893,29.839 0,15.546 0.324,35.703 -6.242,49.438" />
          <path
             inkscape:connector-curvature="0"
             id="path406"
             d="m 139.71,389.87 v 2.671" />
          <path
             inkscape:connector-curvature="0"
             id="path408"
             d="m 145.95,288.32 c -1.624,17.491 1.343,37.25 0,55.225 -0.73999,9.915 -1.32,18.983 -2.675,28.504 -0.944,6.637 -3.428,14.18 -3.567,20.487" />
        </g>
      </g>
      <g
         style="fill:#e5e5e5;stroke-width:0"
         id="g428">
        <path
           inkscape:connector-curvature="0"
           id="path414"
           d="m 64.294,85.235 c -1.3147,-5.413 -1.3532,-10.766 1.1023,-10.766 2.4555,0 4.4444,5.058 4.4444,11.302 0,6.2444 -3.6407,10.769 -6.0962,10.769 -2.4555,0 -0.81507,-4.7237 0.54938,-11.305 z"
           transform="rotate(32.307,66.16,85.504)" />
        <path
           inkscape:connector-curvature="0"
           id="path416"
           d="m 56.117,72.794 c -1.1471,-4.2977 -1.1806,-8.5482 0.96176,-8.5482 2.14236,0 3.8776,4.0158 3.8776,8.9736 0,4.9578 -3.1764,8.5503 -5.3187,8.5503 -2.1424,0 -0.71113,-3.7504 0.47933,-8.9757 z"
           transform="rotate(33.322,57.745,73.008)" />
        <path
           inkscape:connector-curvature="0"
           id="path418"
           d="m 50.085,61.146 c -0.8525,-3.8388 -0.87741,-7.6353 0.71478,-7.6353 1.59219,0 2.8818,3.587 2.8818,8.0153 0,4.4283 -2.3607,7.6372 -3.9528,7.6372 -1.5922,0 -0.52851,-3.3499 0.35623,-8.0172 z"
           transform="rotate(32.307,51.295,61.337)" />
        <path
           inkscape:connector-curvature="0"
           id="path420"
           d="m 41.723,48.708 c -0.73805,-3.3002 -0.75961,-6.5642 0.61882,-6.5642 1.37843,0 2.495,3.0838 2.495,6.8908 0,3.8071 -2.0437,6.5658 -3.4222,6.5658 -1.3784,0 -0.45755,-2.88 0.30841,-6.8925 z"
           transform="rotate(32.307,42.771,48.872)" />
        <path
           inkscape:connector-curvature="0"
           id="path422"
           d="m 34.816,36.524 c -0.43811,-2.5239 -0.45092,-5.0201 0.36733,-5.0201 0.81824,0 1.481,2.3584 1.481,5.27 0,2.9116 -1.2132,5.0214 -2.0314,5.0214 -0.81824,0 -0.2716,-2.2025 0.18308,-5.2712 z"
           transform="rotate(32.307,35.437,36.65)" />
        <path
           inkscape:connector-curvature="0"
           id="path424"
           d="m 27.681,25.098 c -0.37644,-2.148 -0.38744,-4.2723 0.31563,-4.2723 0.70308,0 1.2726,2.0071 1.2726,4.485 0,2.4779 -1.0424,4.2734 -1.7455,4.2734 -0.70308,0 -0.23338,-1.8745 0.1573,-4.486 z"
           transform="rotate(32.307,28.215,25.205)" />
        <path
           inkscape:connector-curvature="0"
           id="path426"
           d="m 19.821,11.795 c -0.27778,-1.5464 -0.28591,-3.0759 0.2329,-3.0759 0.5188,0 0.93902,1.445 0.93902,3.229 0,1.784 -0.7692,3.0767 -1.288,3.0767 -0.51881,0 -0.17222,-1.3495 0.11608,-3.2298 z"
           transform="rotate(32.307,20.215,11.872)" />
      </g>
    </g>
  </g>
</svg>
